<svg width="106" height="28" viewBox="0 0 106 28" fill="none" xmlns="http://www.w3.org/2000/svg">
<path fill-rule="evenodd" clip-rule="evenodd" d="M26.3305 4.97168C27.2271 5.94361 27.9658 7.02804 28.5239 8.19168C29.3368 9.88829 29.755 11.7202 29.7521 13.5717C29.7461 21.0451 23.11 27.1051 14.9141 27.1217C13.0071 27.1207 11.1186 26.7811 9.35397 26.1217C8.09537 25.6657 6.91387 25.0496 5.84461 24.2917C1.29668 21.1312 -0.854957 15.8691 0.313762 10.7651C1.48248 5.66115 5.76356 1.62372 11.3184 0.386755C16.8733 -0.850207 22.7134 0.933438 26.3305 4.97168ZM19.8598 3.7617C18.3072 3.10284 16.6153 2.76153 14.9028 2.7617L14.9138 2.7417C10.8528 2.73894 7.07347 4.63348 4.90001 7.76145C2.72655 10.8894 2.46208 14.8147 4.19927 18.1617C4.69463 17.6872 4.99989 17.0741 5.06564 16.4217C5.46451 13.9091 7.62903 11.9354 10.3845 11.5717C11.9392 11.4432 13.1808 10.3361 13.3565 8.9217C13.7554 6.40912 15.9199 4.43541 18.6754 4.0717C19.0831 4.01506 19.4812 3.91087 19.8598 3.7617ZM5.83341 20.5716C5.87728 20.535 5.92115 20.4994 5.96502 20.4639C6.05275 20.3928 6.14049 20.3216 6.22822 20.2416C7.20388 19.3791 7.83015 18.2405 8.00483 17.0116C8.07566 16.3209 8.41389 15.6757 8.95894 15.1916C9.48342 14.6938 10.1894 14.388 10.9439 14.3316C13.6994 13.9679 15.8639 11.9942 16.2628 9.48165C16.3102 8.75916 16.6503 8.07849 17.2169 7.57165C17.7543 7.0835 18.467 6.78875 19.2238 6.74165C20.4564 6.58701 21.606 6.08736 22.5139 5.31165C23.5476 6.09372 24.4235 7.03454 25.102 8.09165C25.0603 8.143 25.0125 8.18995 24.9594 8.23165C24.436 8.73384 23.7309 9.04641 22.9745 9.11165C20.2155 9.46909 18.0476 11.4459 17.6556 13.9616C17.4962 15.381 16.2627 16.5016 14.7055 16.6416C11.9424 17.0025 9.76654 18.9743 9.35374 21.4916C9.29472 21.9804 9.11066 22.4496 8.81637 22.8616C7.69118 22.2525 6.68343 21.4788 5.83341 20.5716ZM11.6125 24.0117C12.6821 24.2914 13.7895 24.4328 14.9023 24.4317V24.3817C18.5749 24.3687 22.0339 22.8055 24.2696 20.1485C26.5053 17.4914 27.2657 14.04 26.3289 10.8017C25.4964 11.3385 24.5327 11.6818 23.5216 11.8017C21.9688 11.9462 20.7411 13.0657 20.5827 14.4817C20.1826 16.9974 18.0128 18.972 15.2532 19.3317C13.7004 19.4762 12.4727 20.5957 12.3143 22.0117C12.2162 22.7118 11.9784 23.3897 11.6125 24.0117Z" fill="#9893A3" fill-opacity="0.6"/>
<path d="M40.791 19.2422H43.0371C43.6882 19.2422 44.0137 18.8516 44.0137 18.0703V13.1875C44.0137 12.4062 43.6882 12.0156 43.0371 12.0156H40.791C40.14 12.0156 39.8145 12.4062 39.8145 13.1875V18.0703C39.8145 18.8516 40.14 19.2422 40.791 19.2422ZM40.791 21C38.8379 21 37.8613 20.0234 37.8613 18.0703V6.74219L39.7168 5.86328H39.8145V10.5605C40.0749 10.3587 40.4004 10.2578 40.791 10.2578H43.0371C44.9902 10.2578 45.9668 11.2344 45.9668 13.1875V18.0703C45.9668 20.0234 44.9902 21 43.0371 21H40.791Z" fill="#9893A3" fill-opacity="0.6"/>
<path d="M50.5312 8.09961C50.3034 7.86523 50.1895 7.58529 50.1895 7.25977C50.1895 6.92773 50.3034 6.64453 50.5312 6.41016C50.7591 6.17578 51.0358 6.05859 51.3613 6.05859C51.6868 6.05859 51.9635 6.17578 52.1914 6.41016C52.4193 6.64453 52.5332 6.92773 52.5332 7.25977C52.5332 7.58529 52.4193 7.86523 52.1914 8.09961C51.9635 8.33398 51.6868 8.45117 51.3613 8.45117C51.0358 8.45117 50.7591 8.33398 50.5312 8.09961ZM50.3848 21.3906V10.7461L52.2402 9.86719H52.3379V20.5117L50.4824 21.3906H50.3848Z" fill="#9893A3" fill-opacity="0.6"/>
<path d="M56.7559 21.3906V13.1875C56.7559 11.2344 57.7324 10.2578 59.6855 10.2578H61.9316C63.8848 10.2578 64.8613 11.2344 64.8613 13.1875V20.5117L63.0059 21.3906H62.9082V13.1875C62.9082 12.4062 62.5827 12.0156 61.9316 12.0156H59.6855C59.0345 12.0156 58.709 12.4062 58.709 13.1875V20.5117L56.8535 21.3906H56.7559Z" fill="#9893A3" fill-opacity="0.6"/>
<path d="M71.2324 19.2422H73.2832C73.9342 19.2422 74.2598 18.8516 74.2598 18.0703V16.7324C74.2598 15.9512 73.9342 15.5605 73.2832 15.5605H71.2324C70.5814 15.5605 70.2559 15.9512 70.2559 16.7324V18.0703C70.2559 18.8516 70.5814 19.2422 71.2324 19.2422ZM71.2324 21C69.2793 21 68.3027 20.0234 68.3027 18.0703V16.7324C68.3027 14.7793 69.2793 13.8027 71.2324 13.8027H73.2832C73.6217 13.8027 73.9473 13.9004 74.2598 14.0957V13.1875C74.2598 12.4062 73.9342 12.0156 73.2832 12.0156H69.7871V11.918L70.5684 10.2578H73.2832C75.2363 10.2578 76.2129 11.2344 76.2129 13.1875V20.5117L74.3574 21.3906H74.2598V20.707C74.0124 20.9023 73.6868 21 73.2832 21H71.2324Z" fill="#9893A3" fill-opacity="0.6"/>
<path d="M81.4316 21.3906V12.0352H78.9219V11.9375L79.7129 10.2578H81.4316V6.74219L83.2871 5.86328H83.3848V10.2578H85.8945V10.3555L85.1035 12.0352H83.3848V20.5117L81.5293 21.3906H81.4316Z" fill="#9893A3" fill-opacity="0.6"/>
<path d="M91.5332 19.2422H93.7793C94.4303 19.2422 94.7559 18.8516 94.7559 18.0703V13.1875C94.7559 12.4062 94.4303 12.0156 93.7793 12.0156H91.5332C90.8822 12.0156 90.5566 12.4062 90.5566 13.1875V18.0703C90.5566 18.8516 90.8822 19.2422 91.5332 19.2422ZM91.5332 21C89.5801 21 88.6035 20.0234 88.6035 18.0703V13.1875C88.6035 11.2344 89.5801 10.2578 91.5332 10.2578H93.7793C95.7324 10.2578 96.709 11.2344 96.709 13.1875V18.0703C96.709 20.0234 95.7324 21 93.7793 21H91.5332Z" fill="#9893A3" fill-opacity="0.6"/>
<path d="M100.639 21.3906V13.1875C100.639 11.2344 101.615 10.2578 103.568 10.2578H106.01V10.3555L105.229 12.0156H103.568C102.917 12.0156 102.592 12.4062 102.592 13.1875V20.5117L100.736 21.3906H100.639Z" fill="#9893A3" fill-opacity="0.6"/>
</svg>
