<svg width="600" height="443" viewBox="0 0 600 443" fill="none" xmlns="http://www.w3.org/2000/svg">
<g clip-path="url(#clip0_771_522)">
<path d="M18.2562 390.677C2.97325 377.519 -4.90676 357.807 3.30379 341.133C15.2564 357.912 34.9333 371.126 57.7469 377.694C66.6324 380.253 76.8506 382.363 81.6836 388.816C84.6909 392.832 84.91 397.861 83.5551 402.407C82.2 406.954 79.4102 411.136 76.648 415.261L76.6322 416.428C55.0055 411.396 33.5392 403.835 18.2562 390.677Z" fill="white"/>
<path d="M3.76342 341.222C6.34019 355.742 14.7722 369.703 27.6641 380.227C30.4625 382.608 33.638 384.588 37.0832 386.101C40.6288 387.537 44.494 388.19 48.3666 388.008C52.0145 387.902 55.7305 387.458 59.3474 388.058C61.1213 388.343 62.814 388.952 64.3244 389.85C65.8349 390.747 67.1319 391.914 68.138 393.28C70.5359 396.505 71.3322 400.223 71.9518 403.88C72.6399 407.941 73.2735 412.167 76.1967 415.66C76.5509 416.083 75.7036 416.495 75.35 416.072C70.2642 409.995 71.9658 402.229 68.5342 395.675C66.933 392.617 64.1622 389.924 60.02 389C56.3978 388.193 52.5654 388.648 48.873 388.781C45.0887 389.001 41.2968 388.477 37.7528 387.243C34.2235 385.877 30.9586 383.998 28.0843 381.679C21.7909 376.76 16.4134 370.939 12.1619 364.443C7.44374 357.326 4.25603 349.45 2.77029 341.238C2.68127 340.737 3.67499 340.724 3.76342 341.222Z" fill="white"/>
<path d="M23.2466 376.982C20.622 378.47 17.5555 379.173 14.4737 378.993C11.392 378.813 8.44817 377.759 6.05192 375.978C5.59809 375.62 6.27588 375.043 6.73031 375.401C8.95823 377.063 11.6996 378.044 14.5691 378.207C17.4386 378.37 20.2918 377.706 22.7273 376.309C23.2416 376.008 23.7579 376.682 23.2466 376.982Z" fill="white"/>
<path d="M46.5257 388.256C47.0362 385.719 46.9536 383.112 46.2833 380.607C45.613 378.102 44.3702 375.755 42.6367 373.721C42.2844 373.297 43.1315 372.884 43.4834 373.308C45.2824 375.428 46.5698 377.873 47.2607 380.481C47.9515 383.089 48.0302 385.802 47.4915 388.44C47.3855 388.941 46.4203 388.755 46.5257 388.256Z" fill="white"/>
<path d="M8.70235 357.113C9.78589 356.76 10.7528 356.159 11.5113 355.368C12.2697 354.577 12.7947 353.622 13.0363 352.594C13.1343 352.091 14.0995 352.278 14.0021 352.778C13.7297 353.913 13.1489 354.966 12.3133 355.842C11.4778 356.717 10.4144 357.386 9.22159 357.786C9.1084 357.838 8.97933 357.853 8.85533 357.83C8.73134 357.806 8.61973 357.745 8.53865 357.656C8.50545 357.612 8.48321 357.561 8.4735 357.509C8.46379 357.456 8.46687 357.401 8.48246 357.35C8.49806 357.298 8.52578 357.25 8.56377 357.209C8.60176 357.168 8.64906 357.136 8.70235 357.113Z" fill="white"/>
<path d="M75.7756 322.175C75.7257 322.49 75.6757 322.805 75.6319 323.125C74.9882 327.359 74.7786 331.638 75.0058 335.908C75.0168 336.238 75.0342 336.572 75.0571 336.901C75.7765 347.289 78.8719 357.422 84.1432 366.646C86.2876 370.412 88.7641 374.012 91.5479 377.411C95.4265 382.152 100.107 387.049 101.739 392.375C101.917 392.927 102.052 393.489 102.143 394.059L78.4244 416.352C78.3385 416.381 78.2587 416.415 78.1725 416.445L77.2767 417.369C77.1163 417.2 76.9545 417.022 76.7941 416.853C76.7006 416.755 76.6123 416.652 76.5188 416.555C76.4581 416.488 76.3976 416.421 76.338 416.363C76.3177 416.341 76.2977 416.319 76.2838 416.301C76.2242 416.244 76.1765 416.185 76.1233 416.132C75.2156 415.139 74.315 414.138 73.4215 413.131C73.4151 413.127 73.4152 413.127 73.414 413.118C66.6315 405.431 60.597 397.227 56.3216 388.556C56.1931 388.295 56.0579 388.03 55.9402 387.759C54.0514 383.872 52.5564 379.835 51.4738 375.698C50.8967 373.452 50.4621 371.177 50.1722 368.885C49.4405 362.969 49.8847 356.98 51.4835 351.208C54.6771 339.643 62.4901 329.019 74.8271 322.654C75.1428 322.491 75.4535 322.333 75.7756 322.175Z" fill="white"/>
<path d="M76.0783 322.464C67.1326 335.291 63.2863 350.471 65.605 365.041C66.0247 368.248 67.064 371.362 68.6745 374.237C70.4672 377.126 73.081 379.517 76.2388 381.157C79.232 382.817 82.5356 384.24 84.9688 386.45C86.1655 387.526 87.0667 388.845 87.5989 390.301C88.131 391.756 88.279 393.306 88.0306 394.824C87.5011 398.547 85.3197 401.896 83.0433 405.112C80.5158 408.684 77.8193 412.361 77.5065 416.548C77.4686 417.056 76.4801 416.979 76.5179 416.473C77.0621 409.188 84.3059 403.8 86.532 396.926C87.5708 393.719 87.3993 390.243 84.7917 387.524C82.5115 385.146 79.1063 383.677 76.0573 382.017C72.9404 380.443 70.2921 378.195 68.3438 375.469C66.5568 372.677 65.3679 369.6 64.8406 366.401C63.5453 359.314 63.6632 352.071 65.1884 345.022C66.9232 336.833 70.3455 329.021 75.2727 322.002C75.5817 321.559 76.3853 322.024 76.0783 322.464V322.464Z" fill="white"/>
<path d="M64.5369 360.337C58.0408 360.283 52.4979 356.41 51.5692 351.309C51.4777 350.807 52.4562 350.67 52.5478 351.174C53.4178 355.952 58.5596 359.501 64.6321 359.551C65.2712 359.557 65.1723 360.342 64.5369 360.337Z" fill="white"/>
<path d="M74.5815 380.474C76.8284 378.837 78.6881 376.799 80.0476 374.484C81.4071 372.169 82.2381 369.626 82.4902 367.008C82.5303 366.501 83.5189 366.577 83.4788 367.084C83.2098 369.808 82.3385 372.453 80.9177 374.86C79.4968 377.266 77.5561 379.383 75.2133 381.083C74.7484 381.433 74.1192 380.822 74.5815 380.474Z" fill="white"/>
<path d="M67.9798 337.515C69.1803 337.738 70.4197 337.716 71.6098 337.45C72.7999 337.185 73.9113 336.683 74.8649 335.98C75.324 335.625 75.9528 336.236 75.4967 336.588C74.4395 337.362 73.2111 337.915 71.8966 338.211C70.5822 338.506 69.2132 338.537 67.8845 338.301C67.6208 338.254 67.4128 338.102 67.4378 337.87C67.4616 337.759 67.5309 337.66 67.6316 337.594C67.7324 337.528 67.857 337.5 67.9798 337.515V337.515Z" fill="white"/>
<path d="M111.735 153.275C100.505 153.275 91.4006 144.949 91.4006 134.678C91.4006 124.407 100.505 116.081 111.735 116.081C122.965 116.081 132.069 124.407 132.069 134.678C132.069 144.949 122.965 153.275 111.735 153.275Z" fill="#9E616A"/>
<path d="M22.6311 220.596C25.4889 214.528 29.4134 208.929 34.2488 204.021C30.1542 209.989 27.8142 216.823 27.4552 223.861C28.9377 224.708 30.4888 225.45 32.0949 226.081C36.9219 227.932 42.0685 228.99 47.2976 229.204C50.116 220.617 54.9805 212.707 61.5413 206.045C56.8131 212.941 54.4354 220.967 54.7108 229.103C60.5433 228.642 66.2898 227.516 71.8166 225.75C80.115 223.139 88.1699 219.24 93.9087 213.175C100.12 206.611 103.181 197.949 104.169 189.314C105.158 180.686 104.228 171.976 103.291 163.341C102.849 159.226 106.596 154.49 106.153 150.375H105.858C103.889 147.906 101.883 145.376 100.916 142.448C99.9573 139.527 100.208 136.08 102.414 133.779C103.649 132.577 105.209 131.693 106.935 131.216C107.098 131.027 107.275 130.845 107.459 130.662C110.799 127.418 114.73 124.729 119.077 122.715C115.942 124.881 113.847 127.33 112.873 129.86C115.588 129.313 118.302 128.769 121.017 128.227C121.924 127.347 122.879 126.509 123.879 125.717C125.036 124.86 126.262 124.082 127.545 123.39C126.145 124.516 125.06 125.932 124.38 127.519C127.869 126.716 131.358 125.508 133.173 122.763C136.183 118.222 132.605 112.097 127.611 109.385C123.979 107.508 119.793 106.723 115.646 107.141C111.499 107.558 107.6 109.158 104.501 111.712C97.2797 106.848 86.9971 106.929 78.9642 110.565C73.6611 113.073 69.0929 116.708 65.6426 121.164C67.644 120.929 69.6587 120.8 71.6764 120.779C68.8361 121.159 66.1315 122.139 63.7764 123.64C62.7345 125.119 61.7791 126.648 60.9144 128.22C60.3464 129.252 59.8104 130.298 59.3063 131.357C56.2156 137.793 54.2019 144.647 52.1144 151.421C49.6802 159.314 47.069 167.261 42.5104 174.324C35.521 185.064 24.4951 193.11 11.4929 196.957C10.4085 205.883 15.1736 214.612 22.6311 220.596Z" fill="#2F2E41"/>
<path d="M69.8189 422.093L77.1997 425.236L93.9663 400.693L83.0721 396.055L69.8189 422.093Z" fill="#9E616A"/>
<path d="M59.9695 432.131L65.2628 434.385L68.5341 430.216L68.6275 435.817L82.6665 441.794C83.3395 442.081 84.095 442.163 84.8227 442.029C85.5504 441.895 86.2122 441.552 86.7116 441.05C87.2109 440.548 87.5216 439.912 87.5983 439.237C87.675 438.562 87.5137 437.882 87.138 437.296L79.5313 425.442L81.8832 420.821L69.7634 416.444L59.9695 432.131Z" fill="#2F2E41"/>
<path d="M143.918 429.19H152.06L155.934 400.469H143.918V429.19Z" fill="#9E616A"/>
<path d="M139.62 442.092H145.459L146.501 437.05L149.171 442.092H164.656C165.399 442.092 166.122 441.875 166.72 441.472C167.317 441.07 167.759 440.503 167.98 439.855C168.201 439.207 168.189 438.511 167.947 437.87C167.705 437.228 167.245 436.674 166.634 436.288L154.268 428.477V423.38L141.261 424.09L139.62 442.092Z" fill="#2F2E41"/>
<path d="M106.311 211.564L113.057 230.388L115.287 245.647L151.12 235.529L147.805 201.48L140.352 194.736L106.311 211.564Z" fill="#9E616A"/>
<path d="M449.358 35.5348C447.359 32.7875 448.542 28.8547 452 26.7507C455.458 24.6467 459.881 25.1683 461.88 27.9157C463.878 30.6631 462.695 34.5959 459.237 36.6998C455.78 38.8038 451.356 38.2822 449.358 35.5348Z" fill="#FD6584"/>
<path d="M376.677 264.445C374.679 261.697 375.862 257.765 379.32 255.661C382.777 253.557 387.201 254.078 389.199 256.826C391.198 259.573 390.015 263.506 386.557 265.61C383.099 267.714 378.676 267.192 376.677 264.445Z" fill="white"/>
<path d="M580.264 68.1301C578.266 65.3827 579.449 61.4499 582.907 59.3459C586.364 57.242 590.788 57.7635 592.786 60.5109C594.785 63.2583 593.602 67.1911 590.144 69.295C586.686 71.399 582.263 70.8774 580.264 68.1301Z" fill="white"/>
<path d="M323.666 230.992L569.478 230.992C577.57 230.984 585.328 228.04 591.05 222.807C596.772 217.574 599.991 210.479 600 203.078V106.442C599.991 99.0415 596.772 91.9462 591.05 86.7131C585.328 81.4799 577.57 78.5363 569.478 78.5279C491.041 58.6537 408.776 60.5156 323.666 78.5279C315.574 78.5363 307.816 81.4799 302.094 86.7131C296.372 91.9462 293.153 99.0415 293.144 106.442L293.144 203.078C293.153 210.479 296.372 217.574 302.094 222.807C307.816 228.04 315.574 230.984 323.666 230.992Z" fill="white"/>
<path d="M573.814 206.368C573.911 206.368 574.007 206.351 574.096 206.317C574.186 206.283 574.267 206.234 574.336 206.171C574.404 206.108 574.458 206.034 574.495 205.952C574.532 205.87 574.552 205.782 574.552 205.694V103.826C574.552 103.647 574.474 103.476 574.335 103.349C574.197 103.223 574.01 103.151 573.814 103.151C573.618 103.151 573.431 103.223 573.292 103.349C573.154 103.476 573.076 103.647 573.076 103.826V205.694C573.076 205.782 573.095 205.87 573.132 205.952C573.169 206.034 573.224 206.108 573.292 206.171C573.361 206.234 573.442 206.283 573.532 206.317C573.621 206.351 573.717 206.368 573.814 206.368Z" fill="white"/>
<path d="M317.855 206.368C317.758 206.368 317.662 206.351 317.572 206.317C317.483 206.283 317.402 206.234 317.333 206.171C317.265 206.108 317.21 206.034 317.173 205.952C317.136 205.87 317.117 205.782 317.117 205.694V103.826C317.117 103.647 317.195 103.476 317.333 103.349C317.471 103.223 317.659 103.151 317.855 103.151C318.05 103.151 318.238 103.223 318.376 103.349C318.515 103.476 318.592 103.647 318.592 103.826L318.592 205.694C318.592 205.782 318.573 205.87 318.536 205.952C318.499 206.034 318.445 206.108 318.376 206.171C318.308 206.234 318.226 206.283 318.137 206.317C318.047 206.351 317.952 206.368 317.855 206.368Z" fill="white"/>
<path d="M366.538 125.414H366.541C366.737 125.413 366.924 125.342 367.062 125.215C367.2 125.088 367.277 124.916 367.276 124.737L366.907 21.5201C366.907 21.3416 366.829 21.1706 366.69 21.0446C366.552 20.9186 366.365 20.8478 366.17 20.8478H366.167C365.972 20.8484 365.784 20.9201 365.646 21.047C365.508 21.174 365.431 21.3458 365.432 21.5247L365.801 124.742C365.802 124.92 365.88 125.091 366.018 125.217C366.156 125.343 366.343 125.414 366.538 125.414Z" fill="#2F2E41"/>
<path d="M460.956 273.156H460.958C461.154 273.155 461.341 273.084 461.479 272.957C461.617 272.83 461.694 272.658 461.693 272.479L461.325 171.961C461.324 171.782 461.246 171.611 461.108 171.485C460.969 171.359 460.782 171.288 460.587 171.288H460.584C460.389 171.289 460.201 171.36 460.064 171.487C459.926 171.614 459.849 171.786 459.849 171.965L460.218 272.483C460.219 272.662 460.297 272.833 460.435 272.959C460.573 273.085 460.76 273.156 460.956 273.156Z" fill="#2F2E41"/>
<path d="M531.031 144.303H531.034C531.229 144.303 531.417 144.231 531.555 144.104C531.692 143.977 531.769 143.805 531.769 143.626L531.4 41.7586C531.399 41.5801 531.321 41.4091 531.183 41.2831C531.045 41.1571 530.858 41.0863 530.662 41.0863H530.66C530.464 41.0869 530.277 41.1586 530.139 41.2855C530.001 41.4125 529.924 41.5843 529.925 41.7632L530.294 143.631C530.294 143.809 530.372 143.98 530.511 144.106C530.649 144.232 530.836 144.303 531.031 144.303Z" fill="#2F2E41"/>
<path d="M561.489 171.423C560.068 164.409 551.349 161.174 544.283 161.723C534.186 162.508 525.76 168.588 516.362 171.454C511.821 172.839 506.936 173.6 502.177 172.803C498.425 172.096 494.947 170.49 492.098 168.149C486.634 163.878 482.94 158.053 477.472 153.787C474.548 151.379 470.849 149.902 466.93 149.577C462.105 149.284 457.381 150.779 453.152 152.784C444.75 156.765 437.873 163.101 428.925 166.174C424.816 167.623 420.36 168.044 416.014 167.394C411.676 166.604 407.552 165.038 403.877 162.787C396.173 158.336 389.823 152.159 381.723 148.255C377.739 146.335 373.314 144.866 368.763 144.838C364.366 144.843 360.138 146.391 356.951 149.163C350.816 154.263 345.979 162.315 336.608 162.456C334.654 162.49 332.731 162.007 331.069 161.066C329.86 160.382 330.97 158.631 332.186 159.318C336.005 161.479 340.605 160.115 344.086 158.02C347.794 155.789 350.426 152.379 353.452 149.473C356.458 146.587 359.965 144.156 364.289 143.255C368.609 142.475 373.082 142.817 377.201 144.242C386.052 147.063 392.753 152.869 400.099 157.92C407.339 162.898 415.792 167.205 425.133 165.132C434.434 163.067 441.49 156.626 449.535 152.302C457.311 148.122 466.843 145.453 475.217 149.851C481.544 153.174 485.544 159.043 490.404 163.824C492.802 166.183 495.476 168.376 498.715 169.716C503.216 171.578 508.303 171.361 512.991 170.257C522.77 167.955 531.019 161.933 540.977 160.131C548.368 158.794 557.117 160.479 561.629 166.455C562.626 167.787 563.306 169.296 563.623 170.885C563.881 172.158 561.748 172.704 561.489 171.423L561.489 171.423Z" fill="#2F2E41"/>
<path d="M530.662 175.842C525.366 175.842 521.073 171.915 521.073 167.072C521.073 162.228 525.366 158.302 530.662 158.302C535.958 158.302 540.251 162.228 540.251 167.072C540.251 171.915 535.958 175.842 530.662 175.842Z" fill="#6C63FF"/>
<path d="M461.693 157.29C456.397 157.29 452.104 153.363 452.104 148.52C452.104 143.676 456.397 139.75 461.693 139.75C466.989 139.75 471.283 143.676 471.283 148.52C471.283 153.363 466.989 157.29 461.693 157.29Z" fill="#6C63FF"/>
<path d="M367.276 151.218C361.98 151.218 357.687 147.292 357.687 142.448C357.687 137.605 361.98 133.678 367.276 133.678C372.572 133.678 376.865 137.605 376.865 142.448C376.865 147.292 372.572 151.218 367.276 151.218Z" fill="#6C63FF"/>
<path d="M449.533 298.848H470.566C471.723 298.847 472.841 298.464 473.714 297.77C474.587 297.076 475.157 296.118 475.32 295.07C476.619 286.33 476.619 277.469 475.32 268.728C475.16 267.695 474.603 266.748 473.75 266.056C472.896 265.364 471.801 264.972 470.661 264.951C463.812 261.587 456.674 261.586 449.442 264.951C448.752 264.961 448.073 265.109 447.452 265.384C446.831 265.66 446.283 266.055 445.846 266.544C445.389 267.055 445.061 267.652 444.888 268.293C444.715 268.933 444.699 269.601 444.843 270.248C446.533 277.938 446.533 285.859 444.843 293.549C444.699 294.196 444.715 294.864 444.888 295.505C445.061 296.145 445.389 296.743 445.846 297.253C446.293 297.753 446.855 298.155 447.493 298.431C448.13 298.706 448.827 298.849 449.533 298.848Z" fill="#6C63FF"/>
<path d="M352.902 35.9315L373.936 35.9315C375.093 35.9307 376.21 35.5482 377.084 34.8543C377.957 34.1603 378.527 33.2015 378.69 32.1539C379.989 23.4133 379.989 14.5523 378.69 5.81172C378.529 4.77672 377.971 3.82795 377.114 3.13573C376.258 2.4435 375.159 2.05316 374.016 2.03477C367.399 -0.678206 360.272 -0.677875 352.83 2.03445C352.137 2.04286 351.454 2.18991 350.83 2.46528C350.206 2.74064 349.655 3.13765 349.216 3.62843C348.759 4.13899 348.431 4.73633 348.258 5.37706C348.084 6.01779 348.069 6.68582 348.213 7.3326C349.903 15.0225 349.903 22.9431 348.213 30.633C348.069 31.2798 348.084 31.9478 348.258 32.5886C348.431 33.2293 348.759 33.8266 349.216 34.3372C349.662 34.8367 350.225 35.2389 350.863 35.5147C351.5 35.7905 352.197 35.9328 352.902 35.9315Z" fill="#6C63FF"/>
<path d="M520.55 53.451L541.583 53.451C542.288 53.4523 542.985 53.3099 543.623 53.0342C544.261 52.7584 544.823 52.3561 545.269 51.8567C545.727 51.3461 546.054 50.7488 546.228 50.108C546.401 49.4673 546.416 48.7993 546.272 48.1525C544.583 40.4626 544.583 32.542 546.272 24.8521C546.416 24.2052 546.401 23.5372 546.228 22.8964C546.054 22.2556 545.727 21.6582 545.269 21.1476C544.832 20.6586 544.284 20.2627 543.662 19.9876C543.041 19.7124 542.361 19.5645 541.671 19.5543C535.276 16.6901 528.146 16.6901 520.476 19.5543C519.332 19.571 518.232 19.9606 517.374 20.653C516.516 21.3454 515.957 22.2951 515.796 23.3312C514.497 32.0717 514.497 40.9326 515.796 49.673C515.958 50.7207 516.529 51.6796 517.402 52.3736C518.275 53.0677 519.393 53.4502 520.55 53.451Z" fill="#CFCFDE"/>
<path d="M355.105 12.0777L372.809 12.0777Cnan nan nan nan 372.809 12.0777L355.105 10.0538V12.0777Cnan nan nan nan 355.105 12.0777Z" fill="white"/>
<path d="M355.105 20.1732L372.809 20.1732Cnan nan nan nan 372.809 20.1732L355.105 18.1493V20.1732Cnan nan nan nan 355.105 20.1732Z" fill="white"/>
<path d="M355.105 28.2686L372.809 28.2686Cnan nan nan nan 372.809 28.2686L355.105 26.2448V28.2686Cnan nan nan nan 355.105 28.2686Z" fill="white"/>
<path d="M520.228 28.2686L537.931 28.2686Cnan nan nan nan 537.931 28.2686L520.228 26.2448V28.2686Cnan nan nan nan 520.228 28.2686Z" fill="white"/>
<path d="M520.228 36.3641L537.931 36.3641Cnan nan nan nan 537.931 36.3641L520.228 34.3402V36.3641Cnan nan nan nan 520.228 36.3641Z" fill="white"/>
<path d="M520.228 44.4595L537.931 44.4595Cnan nan nan nan 537.931 44.4595L520.228 42.4357V44.4595Cnan nan nan nan 520.228 44.4595Z" fill="white"/>
<path d="M450.89 273.156H468.594Cnan nan nan nan 468.594 273.156L450.89 271.132V273.156Cnan nan nan nan 450.89 273.156Z" fill="white"/>
<path d="M450.89 281.251H468.594Cnan nan nan nan 468.594 281.251L450.89 279.227V281.251Cnan nan nan nan 450.89 281.251Z" fill="white"/>
<path d="M450.89 289.347H468.594Cnan nan nan nan 468.594 289.347L450.89 287.323V289.347Cnan nan nan nan 450.89 289.347Z" fill="white"/>
<path d="M102.818 242.602L152.078 232.412L170.328 271.132L175.491 350.063L162.037 414.152H135.078L147.461 350.063L144.511 301.49L130.687 359.822L94.0587 408.217L77.1587 394.866L106.154 349.388C106.154 349.388 94.0146 267.743 106.891 253.592L102.818 242.602Z" fill="#2F2E41"/>
<path d="M132.212 165.712L128.266 164.356L123.289 156.997L105.562 158.322L101.253 166.213L90.8738 173.462L95.413 195.326L102.465 221.885L149.674 216.488L149.624 196.495C149.624 196.495 158.155 180.7 144.375 174.781L132.212 165.712Z" fill="white"/>
<path d="M204.98 235.061C204.063 235.397 203.077 235.546 202.091 235.496C201.105 235.446 200.143 235.2 199.273 234.773C198.402 234.346 197.645 233.75 197.053 233.027C196.462 232.304 196.051 231.471 195.85 230.587L143.213 201.457L152.834 191.305L201.549 223.13C203.196 222.92 204.87 223.269 206.254 224.111C207.638 224.954 208.636 226.232 209.059 227.702C209.482 229.173 209.3 230.734 208.548 232.09C207.796 233.447 206.527 234.504 204.98 235.061V235.061Z" fill="#9E616A"/>
<path d="M125.673 187.643C125.673 187.643 123.158 189.958 129.469 193.764C134.523 196.812 157.062 211.87 165.052 214.252C164.952 215.325 165.245 216.398 165.886 217.302C166.526 218.207 167.477 218.89 168.589 219.245L175.823 204.706C174.257 201.382 171.753 202.152 170.435 202.905L161.697 196.896L140.243 177.302L127.459 185.941L125.673 187.643Z" fill="white"/>
<path d="M206.343 237.418H227.376C228.082 237.419 228.779 237.277 229.416 237.001C230.054 236.725 230.616 236.323 231.063 235.824C231.52 235.313 231.847 234.716 232.021 234.075C232.194 233.434 232.21 232.766 232.065 232.12C230.376 224.43 230.376 216.509 232.065 208.819C232.21 208.172 232.194 207.504 232.021 206.863C231.847 206.223 231.52 205.625 231.063 205.115C230.626 204.626 230.077 204.23 229.456 203.955C228.834 203.679 228.154 203.532 227.464 203.521C221.069 200.657 213.939 200.657 206.269 203.521C205.125 203.538 204.025 203.928 203.167 204.62C202.309 205.312 201.75 206.262 201.589 207.298C200.291 216.039 200.291 224.9 201.589 233.64C201.752 234.688 202.322 235.647 203.195 236.341C204.068 237.035 205.186 237.417 206.343 237.418Z" fill="#6C63FF"/>
<path d="M206.021 212.236H223.724Cnan nan nan nan 223.724 212.236L206.021 210.212V212.236Cnan nan nan nan 206.021 212.236Z" fill="white"/>
<path d="M206.021 220.331H223.724Cnan nan nan nan 223.724 220.331L206.021 218.307V220.331Cnan nan nan nan 206.021 220.331Z" fill="white"/>
<path d="M206.021 228.427H223.724Cnan nan nan nan 223.724 228.427L206.021 226.403V228.427Cnan nan nan nan 206.021 228.427Z" fill="white"/>
<path d="M104.549 295.435H125.583C126.288 295.437 126.985 295.294 127.622 295.019C128.26 294.743 128.823 294.341 129.269 293.841C129.726 293.331 130.054 292.733 130.227 292.092C130.401 291.452 130.416 290.784 130.272 290.137C128.582 282.447 128.582 274.526 130.272 266.836C130.416 266.19 130.401 265.522 130.227 264.881C130.054 264.24 129.726 263.643 129.269 263.132C128.832 262.643 128.283 262.247 127.662 261.972C127.04 261.697 126.361 261.549 125.67 261.539C119.276 258.674 112.146 258.674 104.475 261.539C103.331 261.555 102.231 261.945 101.374 262.637C100.516 263.33 99.9562 264.28 99.7958 265.316C98.497 274.056 98.497 282.917 99.7958 291.657C99.958 292.705 100.528 293.664 101.401 294.358C102.275 295.052 103.392 295.435 104.549 295.435Z" fill="#CFCFDE"/>
<path d="M104.227 270.253H121.931Cnan nan nan nan 121.931 270.253L104.227 268.229V270.253Cnan nan nan nan 104.227 270.253Z" fill="white"/>
<path d="M104.227 278.348H121.931Cnan nan nan nan 121.931 278.348L104.227 276.325V278.348Cnan nan nan nan 104.227 278.348Z" fill="white"/>
<path d="M104.227 286.444H121.931Cnan nan nan nan 121.931 286.444L104.227 284.42V286.444Cnan nan nan nan 104.227 286.444Z" fill="white"/>
<path d="M113.887 266.468C112.967 266.141 112.136 265.633 111.453 264.98C110.771 264.328 110.253 263.546 109.936 262.691C109.62 261.835 109.512 260.926 109.621 260.029C109.73 259.131 110.053 258.266 110.567 257.495L93.9145 203.328L108.525 201.931L120.299 255.615C121.659 256.491 122.62 257.792 123 259.272C123.381 260.752 123.155 262.309 122.364 263.646C121.574 264.984 120.274 266.01 118.712 266.53C117.149 267.05 115.433 267.028 113.887 266.468Z" fill="#9E616A"/>
<path d="M91.4514 173.593C91.4514 173.593 87.8852 173.71 89.648 180.434C91.0592 185.817 96.2418 219.586 100.294 226.319C99.4188 227.04 98.8308 228.007 98.6225 229.067C98.4143 230.128 98.5977 231.221 99.1438 232.176L115.29 226.085C116.631 222.68 115.593 219.588 114.068 219.314L112.181 209.466L109.401 176.428L94.0275 173.466L91.4514 173.593Z" fill="white"/>
<path d="M104.63 112.218C102.186 115.517 100.607 119.287 100.016 123.234C99.4254 127.182 99.8385 131.201 101.223 134.979" fill="#FD6584"/>
<path d="M18.5053 441.976C18.505 442.081 18.5275 442.186 18.5715 442.283C18.6155 442.381 18.6801 442.47 18.7617 442.544C18.8433 442.619 18.9402 442.678 19.0468 442.718C19.1535 442.758 19.2678 442.779 19.3832 442.779L226.135 442.779C226.25 442.779 226.364 442.758 226.471 442.718C226.577 442.677 226.674 442.618 226.755 442.544C226.837 442.469 226.902 442.38 226.946 442.283C226.99 442.186 227.012 442.081 227.012 441.976C227.012 441.87 226.99 441.766 226.946 441.669C226.902 441.571 226.837 441.483 226.755 441.408C226.674 441.334 226.577 441.274 226.471 441.234C226.364 441.194 226.25 441.173 226.135 441.173L19.3832 441.173C19.2678 441.173 19.1535 441.193 19.0469 441.233C18.9402 441.274 18.8433 441.333 18.7617 441.407C18.6801 441.482 18.6155 441.571 18.5715 441.668C18.5275 441.766 18.505 441.87 18.5053 441.976Z" fill="#CFCFDE"/>
</g>
<defs>
<clipPath id="clip0_771_522">
<rect width="600" height="442.778" fill="white" transform="matrix(-1 0 0 1 600 0.00012207)"/>
</clipPath>
</defs>
</svg>
