<svg width="79" height="27" viewBox="0 0 79 27" fill="none" xmlns="http://www.w3.org/2000/svg">
<rect width="79" height="27" fill="#222222"/>
<rect width="1440" height="3469" transform="translate(-130 -48.2544)" fill="white"/>
<path d="M9.75461 0.000434938C8.70089 0.000723326 7.69043 0.394428 6.94533 1.095C6.20024 1.79557 5.78153 2.74567 5.78122 3.73643V5.43362H3.97618C3.454 5.43321 2.93686 5.52963 2.45435 5.71733C1.97185 5.90504 1.53345 6.18037 1.16422 6.52756C0.794998 6.87473 0.502206 7.28697 0.302595 7.74064C0.102985 8.19434 0.000475699 8.68059 0.000932214 9.17157V12.9062H5.78028V16.3006H3.97525C2.92123 16.3005 1.91032 16.694 1.16484 17.3946C0.419366 18.0952 0.000368188 19.0455 0 20.0366V26.4911H3.97711C4.49879 26.4909 5.01529 26.3941 5.49717 26.206C5.97902 26.0181 6.41677 25.7428 6.78546 25.3957C7.15413 25.0487 7.44648 24.6368 7.64583 24.1834C7.84516 23.7301 7.94759 23.2444 7.94725 22.7539H7.95235V20.2881L7.94171 20.2894V4.57958L7.9505 4.58154V3.73708C7.95141 3.2868 8.14173 2.85513 8.47991 2.53631C8.81806 2.21748 9.27664 2.03739 9.75554 2.03532H16.6584V3.73708C16.657 4.18716 16.466 4.61837 16.1273 4.93641C15.7886 5.25446 15.3298 5.43347 14.8511 5.43427H8.7674V7.47133H14.8501C15.9039 7.47139 16.9144 7.07788 17.6596 6.37737C18.4047 5.67687 18.8234 4.72675 18.8235 3.736V0L9.75461 0.000434938ZM5.78122 10.869H2.16975V9.17177C2.17054 8.72097 2.36108 8.28878 2.69975 7.96966C3.0384 7.65055 3.49765 7.47044 3.97711 7.46872H5.78215L5.78122 10.869ZM5.78122 22.7558C5.78042 23.2058 5.59005 23.6373 5.25177 23.9556C4.91348 24.2741 4.45482 24.4536 3.97618 24.4547H2.16882V20.0377C2.16926 19.5873 2.35989 19.1556 2.6988 18.8373C3.03773 18.519 3.49717 18.3403 3.97618 18.3405H5.78122V22.7558ZM8.7674 12.906H13.3263V14.605C13.3245 15.055 13.1334 15.486 12.7948 15.804C12.4562 16.122 11.9975 16.3011 11.5189 16.3021H8.7674V18.3405H11.5198C12.0417 18.3408 12.5585 18.2443 13.0407 18.0566C13.5229 17.869 13.9611 17.5938 14.3301 17.2468C14.6991 16.8999 14.9918 16.4879 15.1913 16.0345C15.3909 15.5812 15.4935 15.0952 15.4932 14.6045H15.4951V10.8685H8.7674V12.906Z" fill="#6C63FF"/>
<path d="M30.6606 11.29H28.2114V19.5376H25.3818V11.29H23.8232V9.92627L25.3818 9.16553V8.40479C25.3818 7.22347 25.6725 6.36068 26.2539 5.81641C26.8353 5.27214 27.7661 5 29.0464 5C30.0236 5 30.8926 5.14535 31.6533 5.43604L30.9297 7.51416C30.3607 7.3348 29.835 7.24512 29.3525 7.24512C28.9505 7.24512 28.6598 7.36572 28.4805 7.60693C28.3011 7.84196 28.2114 8.14502 28.2114 8.51611V9.16553H30.6606V11.29Z" fill="#2F2E41"/>
<path d="M39.1411 19.5376L38.7607 18.2109H38.6123C38.3092 18.6934 37.8794 19.0675 37.3228 19.3335C36.7661 19.5933 36.1322 19.7231 35.4209 19.7231C34.2025 19.7231 33.284 19.3984 32.6655 18.749C32.047 18.0934 31.7378 17.1533 31.7378 15.9287V9.16553H34.5674V15.2236C34.5674 15.972 34.7004 16.5348 34.9663 16.9121C35.2323 17.2832 35.6559 17.4688 36.2373 17.4688C37.029 17.4688 37.6011 17.2059 37.9536 16.6802C38.3062 16.1483 38.4824 15.27 38.4824 14.0454V9.16553H41.312V19.5376H39.1411Z" fill="#2F2E41"/>
<path d="M51.0171 16.4575C51.0171 17.5213 50.646 18.3315 49.9038 18.8882C49.1678 19.4448 48.0638 19.7231 46.5918 19.7231C45.8372 19.7231 45.194 19.6706 44.6621 19.5654C44.1302 19.4665 43.6323 19.318 43.1685 19.1201V16.7822C43.6942 17.0296 44.2848 17.2368 44.9404 17.4038C45.6022 17.5708 46.1836 17.6543 46.6846 17.6543C47.7113 17.6543 48.2246 17.3574 48.2246 16.7637C48.2246 16.541 48.1566 16.3617 48.0205 16.2256C47.8844 16.0833 47.6494 15.9256 47.3154 15.7524C46.9814 15.5731 46.5361 15.3659 45.9795 15.1309C45.1816 14.7969 44.5941 14.4876 44.2168 14.2031C43.8457 13.9186 43.5736 13.5939 43.4004 13.229C43.2334 12.8579 43.1499 12.4033 43.1499 11.8652C43.1499 10.9437 43.5055 10.2324 44.2168 9.73145C44.9342 9.22428 45.9486 8.9707 47.2598 8.9707C48.5091 8.9707 49.7244 9.24284 50.9058 9.78711L50.0522 11.8281C49.5327 11.6055 49.0472 11.423 48.5957 11.2808C48.1442 11.1385 47.6834 11.0674 47.2134 11.0674C46.3784 11.0674 45.9609 11.2931 45.9609 11.7446C45.9609 11.9982 46.0939 12.2178 46.3599 12.4033C46.632 12.5889 47.2227 12.8641 48.1318 13.229C48.9421 13.5568 49.5358 13.863 49.9131 14.1475C50.2904 14.432 50.5687 14.7598 50.748 15.1309C50.9274 15.502 51.0171 15.9442 51.0171 16.4575Z" fill="#2F2E41"/>
<path d="M57.0205 10.9839C56.4206 10.9839 55.9505 11.1756 55.6104 11.5591C55.2702 11.9364 55.0754 12.4744 55.0259 13.1733H58.9966C58.9842 12.4744 58.8018 11.9364 58.4492 11.5591C58.0967 11.1756 57.6204 10.9839 57.0205 10.9839ZM57.4194 19.7231C55.7495 19.7231 54.4445 19.2624 53.5044 18.3408C52.5643 17.4193 52.0942 16.1143 52.0942 14.4258C52.0942 12.6878 52.5272 11.3457 53.3931 10.3994C54.2651 9.44694 55.4681 8.9707 57.002 8.9707C58.4678 8.9707 59.6089 9.38818 60.4253 10.2231C61.2417 11.0581 61.6499 12.2116 61.6499 13.6836V15.0566H54.9609C54.9919 15.8607 55.23 16.4884 55.6753 16.9399C56.1206 17.3914 56.7453 17.6172 57.5493 17.6172C58.174 17.6172 58.7646 17.5522 59.3213 17.4224C59.8779 17.2925 60.4593 17.0853 61.0654 16.8008V18.9902C60.5706 19.2376 60.0418 19.4201 59.479 19.5376C58.9162 19.6613 58.2297 19.7231 57.4194 19.7231Z" fill="#2F2E41"/>
<path d="M66.2803 19.5376H63.4507V5.10205H66.2803V19.5376Z" fill="#2F2E41"/>
<path d="M67.2739 9.16553H70.3726L72.3301 15.001C72.4971 15.5081 72.6115 16.1081 72.6733 16.8008H72.729C72.797 16.1637 72.93 15.5638 73.1279 15.001L75.0483 9.16553H78.082L73.6938 20.8643C73.2918 21.9466 72.7166 22.7568 71.9683 23.2949C71.2261 23.833 70.3571 24.1021 69.3613 24.1021C68.8727 24.1021 68.3934 24.0495 67.9233 23.9443V21.6992C68.2635 21.7796 68.6346 21.8198 69.0366 21.8198C69.5376 21.8198 69.9736 21.6652 70.3447 21.356C70.722 21.0529 71.0158 20.5921 71.2261 19.9736L71.3931 19.4634L67.2739 9.16553Z" fill="#2F2E41"/>
</svg>
