<svg width="32" height="32" viewBox="0 0 32 32" fill="none" xmlns="http://www.w3.org/2000/svg">
<path d="M0 1C0 0.447715 0.447715 0 1 0H31C31.5523 0 32 0.447715 32 1V31C32 31.5523 31.5523 32 31 32H1C0.447715 32 0 31.5523 0 31V1Z" fill="white"/>
<path d="M13.0716 14.0744H10.468V21.6989H13.0716V14.0744Z" fill="#9893A3"/>
<path d="M12.6339 10.5162C12.3857 10.3659 12.0941 10.2857 11.7958 10.2857C11.5968 10.2857 11.3997 10.3214 11.2159 10.3908C11.0321 10.4602 10.8653 10.5618 10.7249 10.6899C10.5846 10.818 10.4736 10.97 10.3982 11.1372C10.3228 11.3044 10.2846 11.4835 10.2857 11.6641C10.2875 11.9348 10.3775 12.199 10.5444 12.4234C10.7114 12.6477 10.9478 12.8222 11.2239 12.9247C11.5 13.0272 11.8033 13.0532 12.0957 12.9995C12.388 12.9457 12.6563 12.8146 12.8666 12.6226C13.0769 12.4306 13.2199 12.1864 13.2775 11.9207C13.335 11.6551 13.3046 11.3799 13.1901 11.13C13.0755 10.88 12.882 10.6664 12.6339 10.5162Z" fill="#9893A3"/>
<path d="M17.2508 14.074H14.7427L14.734 21.7143H17.3376V17.9414C17.3376 16.9489 17.5459 15.988 18.8997 15.988C20.2536 15.988 20.2536 17.1301 20.2536 18.0123V21.6985H22.8571V17.5161C22.8571 15.4603 22.3277 13.8849 19.7242 13.8849C19.228 13.8673 18.7358 13.9723 18.3002 14.1887C17.8645 14.4051 17.5019 14.7248 17.2508 15.1137V14.074Z" fill="#9893A3"/>
</svg>
