<svg width="85" height="33" viewBox="0 0 85 33" fill="none" xmlns="http://www.w3.org/2000/svg">
<path d="M0 18.1807H2.51832V28.9157H0V18.1807Z" fill="#9893A3" fill-opacity="0.6"/>
<path fill-rule="evenodd" clip-rule="evenodd" d="M6.74057 21.6321C5.06581 22.2376 3.97581 23.6608 3.97921 25.2377C3.96784 26.2736 4.43674 27.2698 5.28012 28.0016C6.12349 28.7335 7.2703 29.1392 8.46182 29.1274C10.2756 29.1274 11.9107 28.1772 12.604 26.72C13.2973 25.2629 12.9123 23.5862 11.6285 22.4722C10.3448 21.3582 8.41534 21.0266 6.74057 21.6321ZM8.42897 23.5886C9.49776 23.5727 10.3815 24.3087 10.4092 25.2377C10.4375 25.6978 10.2432 26.1472 9.87326 26.4772C9.50331 26.8071 8.99147 26.9875 8.46168 26.9746C7.39275 26.9743 6.52388 26.225 6.5149 25.2957C6.50592 24.3664 7.36019 23.6046 8.42897 23.5886Z" fill="#9893A3" fill-opacity="0.6"/>
<path fill-rule="evenodd" clip-rule="evenodd" d="M33.1876 28.5827V21.5914L30.7112 21.6132V22.343C30.1082 21.7036 29.1933 21.3493 28.2432 21.387C25.8696 21.387 23.9453 23.0599 23.9453 25.1235C23.9453 27.1871 25.8696 28.86 28.2432 28.86C29.1941 28.9013 30.1107 28.5462 30.7112 27.904V28.5827C30.76 29.0337 30.5651 29.4788 30.1837 29.7875C29.8023 30.0962 29.2777 30.2335 28.7637 30.159C27.9751 30.2157 27.2266 29.8484 26.875 29.2322L24.7092 30.3195C25.5557 31.5175 27.1006 32.2045 28.7133 32.1002C30.963 32.1002 33.1876 31.0566 33.1876 28.5827ZM29.5066 23.4272C30.2686 23.726 30.7454 24.3973 30.7111 25.1235C30.7267 25.5933 30.5129 26.047 30.1227 26.3723C29.7325 26.6977 29.2022 26.8643 28.6629 26.8311C27.8269 26.8305 27.0753 26.3884 26.7639 25.714C26.4524 25.0396 26.6436 24.2683 27.2469 23.7653C27.8502 23.2623 28.7446 23.1285 29.5066 23.4272Z" fill="#9893A3" fill-opacity="0.6"/>
<path fill-rule="evenodd" clip-rule="evenodd" d="M16.576 21.6831C14.9013 22.2886 13.8113 23.7119 13.8147 25.2887C13.8033 26.3246 14.2722 27.3208 15.1156 28.0527C15.9589 28.7845 17.1057 29.1903 18.2973 29.1785C20.1111 29.1784 21.7461 28.2282 22.4395 26.7711C23.1328 25.3139 22.7477 23.6372 21.464 22.5232C20.1802 21.4093 18.2508 21.0776 16.576 21.6831ZM18.2644 23.6397C19.3332 23.6237 20.217 24.3597 20.2447 25.2887H20.2279C20.2559 25.7462 20.0639 26.1933 19.6976 26.5227C19.3314 26.8522 18.8241 27.0344 18.2971 27.0256C17.2282 27.0253 16.3593 26.276 16.3504 25.3467C16.3414 24.4175 17.1957 23.6556 18.2644 23.6397Z" fill="#9893A3" fill-opacity="0.6"/>
<path fill-rule="evenodd" clip-rule="evenodd" d="M36.1821 18.261C35.3383 18.261 34.6543 18.8556 34.6543 19.5892C34.6589 20.3211 35.3402 20.9134 36.1821 20.9174C37.0258 20.9174 37.7099 20.3227 37.7099 19.5892C37.7099 18.8556 37.0258 18.261 36.1821 18.261ZM37.4328 21.5596H34.9145V28.9158H37.4328V21.5596Z" fill="#9893A3" fill-opacity="0.6"/>
<path fill-rule="evenodd" clip-rule="evenodd" d="M47.3258 27.913C48.0838 27.1828 48.4754 26.2198 48.4137 25.2377C48.4731 24.2568 48.0805 23.2958 47.3227 22.5672C46.565 21.8386 45.5045 21.4024 44.376 21.3553C43.4251 21.3156 42.5028 21.6443 41.8577 22.2529V21.5596H39.3394V31.8787H41.8577V28.2298C42.5028 28.8384 43.4251 29.1671 44.376 29.1274C45.5061 29.0803 46.5678 28.6432 47.3258 27.913ZM43.8642 23.5306C44.9635 23.5225 45.8673 24.2822 45.8952 25.2376H45.8784C45.9183 25.721 45.7159 26.1958 45.3234 26.5398C44.9309 26.8839 44.3864 27.0636 43.8301 27.0329C42.7311 27.0087 41.8573 26.223 41.8666 25.2672C41.8759 24.3115 42.7648 23.5386 43.8642 23.5306Z" fill="#9893A3" fill-opacity="0.6"/>
<path d="M56.2547 26.7119C56.2547 28.405 54.5758 29.1275 52.729 29.1275C51.2197 29.2436 49.7808 28.5503 49.0942 27.376L51.2936 26.2886C51.4775 26.8356 52.0751 27.1971 52.729 27.157C53.3418 27.157 53.644 26.9892 53.644 26.6973C53.644 25.8872 49.4468 26.3178 49.4468 23.7782C49.4468 22.1726 51.0082 21.3626 52.8046 21.3626C54.1545 21.3269 55.4205 21.9303 56.112 22.9389L53.9042 23.946C53.705 23.5522 53.2574 23.2976 52.7626 23.2965C52.3261 23.2965 52.0575 23.4425 52.0575 23.7125C52.091 24.5517 56.2547 23.9898 56.2547 26.7119Z" fill="#9893A3" fill-opacity="0.6"/>
<path d="M65.5225 21.5596V28.9158H63.0042V28.2298C62.4099 28.848 61.5112 29.1817 60.5866 29.1274C58.9077 29.1274 57.4219 28.0692 57.4219 26.0769V21.5596H59.9402V25.7558C59.8954 26.118 60.0403 26.4784 60.3349 26.7374C60.6295 26.9963 61.0426 27.1263 61.4596 27.0913C62.383 27.0913 63.0293 26.6243 63.0293 25.5807V21.5596H65.5225Z" fill="#9893A3" fill-opacity="0.6"/>
<path d="M80.0789 24.4056V28.9156H77.5606V24.5953C77.5606 23.8655 77.1492 23.3839 76.3434 23.3839C75.5375 23.3839 75.0171 23.902 75.0171 24.7705V28.9156H72.4987V24.5953C72.4987 23.8655 72.0958 23.3839 71.2816 23.3839C70.4673 23.3839 69.9636 23.902 69.9636 24.7705V28.9156H67.4453V21.5594H69.9636V22.2381C70.4984 21.6291 71.3514 21.2968 72.2301 21.3551C73.1136 21.3178 73.9549 21.6862 74.4462 22.3257C75.0173 21.6576 75.9428 21.2911 76.8974 21.3551C78.8113 21.3551 80.0789 22.5665 80.0789 24.4056Z" fill="#9893A3" fill-opacity="0.6"/>
<path d="M82.229 21.5158C83.2675 21.5158 84.1093 20.7839 84.1093 19.881C84.1093 18.9782 83.2675 18.2463 82.229 18.2463C81.1905 18.2463 80.3486 18.9782 80.3486 19.881C80.3486 20.7839 81.1905 21.5158 82.229 21.5158Z" fill="#9893A3" fill-opacity="0.6"/>
<path d="M24.4297 13.6461C28.2957 13.6461 31.4297 10.5913 31.4297 6.82304C31.4297 3.05478 28.2957 0 24.4297 0C20.5637 0 17.4297 3.05478 17.4297 6.82304C17.4297 10.5913 20.5637 13.6461 24.4297 13.6461Z" fill="#9893A3" fill-opacity="0.4"/>
<path d="M41.8594 13.6461C45.7254 13.6461 48.8594 10.5913 48.8594 6.82304C48.8594 3.05478 45.7254 0 41.8594 0C37.9934 0 34.8594 3.05478 34.8594 6.82304C34.8594 10.5913 37.9934 13.6461 41.8594 13.6461Z" fill="#CFCFDE" fill-opacity="0.5"/>
<rect width="14" height="13.6461" fill="#9893A3" fill-opacity="0.5"/>
</svg>
