<svg width="109" height="27" viewBox="0 0 109 27" fill="none" xmlns="http://www.w3.org/2000/svg">
<path fill-rule="evenodd" clip-rule="evenodd" d="M28.3165 9.01456C28.3167 5.29811 25.9283 1.96253 22.3017 0.614351C18.6751 -0.733831 14.5538 0.181794 11.9227 2.92023H0V26.9509H25.1734V15.7201C27.1717 14.0133 28.3147 11.5748 28.3165 9.01456ZM23.4712 9.01456C23.4751 10.794 22.3557 12.4002 20.6354 13.0837C18.9152 13.7672 16.9332 13.3933 15.6143 12.1364C14.2955 10.8794 13.8998 8.98731 14.6119 7.34299C15.324 5.69867 17.0036 4.62629 18.8668 4.62628C21.406 4.62628 23.466 6.58951 23.4712 9.01456ZM4.84345 22.3254H20.3296V17.9188C19.8465 17.9953 19.3577 18.035 18.8679 18.0375C13.6519 18.0324 9.42483 13.9957 9.41956 9.01456C9.42376 8.52196 9.4717 8.03058 9.56286 7.54572H4.84345V22.3254Z" fill="#9893A3" fill-opacity="0.6"/>
<path d="M40.3184 20.1509C39.3984 20.1509 38.4917 20.0043 37.5984 19.7109C36.7184 19.4043 35.9717 18.9643 35.3584 18.3909L36.6584 16.0509C37.3117 16.4776 37.9384 16.8109 38.5384 17.0509C39.1517 17.2909 39.7051 17.4109 40.1984 17.4109C40.7451 17.4109 41.0184 17.2509 41.0184 16.9309C41.0184 16.7576 40.9051 16.6176 40.6784 16.5109C40.4651 16.4043 40.1184 16.2776 39.6384 16.1309C38.8117 15.8376 38.1184 15.5643 37.5584 15.3109C37.0117 15.0576 36.5984 14.7509 36.3184 14.3909C36.0517 14.0176 35.9184 13.5243 35.9184 12.9109C35.9184 11.8309 36.3184 10.9443 37.1184 10.2509C37.9184 9.5576 39.0251 9.21094 40.4384 9.21094C41.1451 9.21094 41.8517 9.32427 42.5584 9.55094C43.2784 9.76427 43.9717 10.1576 44.6384 10.7309L43.1984 13.0509C42.5317 12.6376 41.9651 12.3443 41.4984 12.1709C41.0451 11.9976 40.6384 11.9109 40.2784 11.9109C39.7184 11.9109 39.4384 12.0976 39.4384 12.4709C39.4384 12.6709 39.5451 12.8243 39.7584 12.9309C39.9717 13.0376 40.3117 13.1576 40.7784 13.2909C41.6851 13.5576 42.4251 13.8309 42.9984 14.1109C43.5717 14.3776 43.9917 14.7043 44.2584 15.0909C44.5384 15.4776 44.6784 15.9843 44.6784 16.6109C44.6784 17.7176 44.2851 18.5843 43.4984 19.2109C42.7251 19.8376 41.6651 20.1509 40.3184 20.1509Z" fill="#9893A3" fill-opacity="0.6"/>
<path d="M51.0579 20.1509C50.2046 20.1509 49.4379 19.9109 48.7579 19.4309C48.0779 18.9509 47.5446 18.2976 47.1579 17.4709C46.7713 16.6443 46.5779 15.7043 46.5779 14.6509C46.5779 13.6109 46.7846 12.6843 47.1979 11.8709C47.6246 11.0576 48.2046 10.4176 48.9379 9.95094C49.6713 9.47094 50.5046 9.23094 51.4379 9.23094C52.2246 9.23094 52.8913 9.39094 53.4379 9.71094C53.9979 10.0309 54.4646 10.4776 54.8379 11.0509V9.43094H58.1379V24.2309H54.3379V18.3909C53.7246 19.5643 52.6313 20.1509 51.0579 20.1509ZM52.5379 16.9509C53.2446 16.9509 53.8446 16.5909 54.3379 15.8709V13.9909C54.1646 13.5243 53.8913 13.1509 53.5179 12.8709C53.1579 12.5776 52.7779 12.4309 52.3779 12.4309C51.8313 12.4309 51.3713 12.6576 50.9979 13.1109C50.6379 13.5643 50.4579 14.1109 50.4579 14.7509C50.4579 15.4043 50.6513 15.9376 51.0379 16.3509C51.4246 16.7509 51.9246 16.9509 52.5379 16.9509Z" fill="#9893A3" fill-opacity="0.6"/>
<path d="M60.9671 16.3509V9.43094H64.7671V15.4909C64.7671 15.9443 64.8671 16.3043 65.0672 16.5709C65.2805 16.8243 65.5671 16.9509 65.9271 16.9509C66.2205 16.9509 66.5205 16.8843 66.8272 16.7509C67.1338 16.6176 67.4405 16.3243 67.7471 15.8709V9.43094H71.5471V15.7509C71.5471 16.1109 71.6005 16.3643 71.7071 16.5109C71.8138 16.6443 72.0005 16.7243 72.2671 16.7509V19.9509C71.6138 20.0843 71.0805 20.1509 70.6671 20.1509C69.3738 20.1509 68.6271 19.6643 68.4271 18.6909L68.3471 18.3109C67.8538 18.9643 67.2605 19.4376 66.5672 19.7309C65.8871 20.0109 65.1138 20.1509 64.2471 20.1509C63.1938 20.1509 62.3805 19.8243 61.8071 19.1709C61.2472 18.5176 60.9671 17.5776 60.9671 16.3509Z" fill="#9893A3" fill-opacity="0.6"/>
<path d="M74.2411 16.7709C74.2411 16.0643 74.4344 15.4443 74.8211 14.9109C75.2077 14.3643 75.7411 13.9376 76.4211 13.6309C77.1144 13.3243 77.9011 13.1709 78.7811 13.1709C79.6344 13.1709 80.3411 13.3043 80.9011 13.5709V13.2509C80.9011 12.7576 80.7544 12.3909 80.4611 12.1509C80.1811 11.9109 79.7211 11.7909 79.0811 11.7909C78.4944 11.7909 77.9411 11.8909 77.4211 12.0909C76.9144 12.2776 76.3811 12.5576 75.8211 12.9309L74.7211 10.5709C76.1077 9.6776 77.6877 9.23094 79.4611 9.23094C81.1277 9.23094 82.4144 9.61094 83.3211 10.3709C84.2411 11.1176 84.7011 12.2309 84.7011 13.7109V15.7509C84.7011 16.1109 84.7544 16.3643 84.8611 16.5109C84.9677 16.6443 85.1544 16.7243 85.4211 16.7509V19.9509C85.1144 20.0176 84.8211 20.0643 84.5411 20.0909C84.2744 20.1309 84.0344 20.1509 83.8211 20.1509C83.1411 20.1509 82.6211 20.0309 82.2611 19.7909C81.9144 19.5376 81.6877 19.1709 81.5811 18.6909L81.5011 18.3109C80.5411 19.5376 79.3477 20.1509 77.9211 20.1509C77.2277 20.1509 76.6011 20.0043 76.0411 19.7109C75.4811 19.4176 75.0411 19.0176 74.7211 18.5109C74.4011 17.9909 74.2411 17.4109 74.2411 16.7709ZM80.4011 17.0309C80.7344 16.8043 80.9011 16.5576 80.9011 16.2909V15.5109C80.6877 15.4309 80.4411 15.3643 80.1611 15.3109C79.8944 15.2576 79.6544 15.2309 79.4411 15.2309C78.9877 15.2309 78.6011 15.3443 78.2811 15.5709C77.9744 15.7976 77.8211 16.0843 77.8211 16.4309C77.8211 16.7243 77.9344 16.9643 78.1611 17.1509C78.4011 17.3376 78.7011 17.4309 79.0611 17.4309C79.5544 17.4309 80.0011 17.2976 80.4011 17.0309Z" fill="#9893A3" fill-opacity="0.6"/>
<path d="M94.9337 12.6709C94.2004 12.6709 93.5337 12.7509 92.9337 12.9109C92.3337 13.0709 91.887 13.3376 91.5937 13.7109V19.9509H87.7937V9.43094H91.2737V11.4309C91.647 10.7243 92.1137 10.1843 92.6737 9.81094C93.2337 9.42427 93.827 9.23094 94.4537 9.23094C94.707 9.23094 94.867 9.2376 94.9337 9.25094V12.6709Z" fill="#9893A3" fill-opacity="0.6"/>
<path d="M102.294 20.1509C101.067 20.1509 100.021 19.9043 99.154 19.4109C98.3007 18.9176 97.6474 18.2643 97.194 17.4509C96.754 16.6376 96.534 15.7643 96.534 14.8309C96.534 13.8176 96.754 12.8909 97.194 12.0509C97.634 11.1976 98.2807 10.5176 99.134 10.0109C99.9874 9.49094 101.041 9.23094 102.294 9.23094C103.547 9.23094 104.601 9.48427 105.454 9.99094C106.307 10.4976 106.954 11.1643 107.394 11.9909C107.834 12.8176 108.054 13.7176 108.054 14.6909C108.054 15.1043 108.021 15.4909 107.954 15.8509H100.574C100.614 16.4109 100.821 16.8176 101.194 17.0709C101.567 17.3109 101.974 17.4309 102.414 17.4309C102.827 17.4309 103.214 17.3376 103.574 17.1509C103.947 16.9643 104.194 16.7043 104.314 16.3709L107.534 17.2909C107.107 18.1309 106.447 18.8176 105.554 19.3509C104.661 19.8843 103.574 20.1509 102.294 20.1509ZM100.494 13.5709H103.974C103.921 13.0643 103.734 12.6643 103.414 12.3709C103.107 12.0776 102.714 11.9309 102.234 11.9309C101.754 11.9309 101.361 12.0776 101.054 12.3709C100.747 12.6643 100.561 13.0643 100.494 13.5709Z" fill="#9893A3" fill-opacity="0.6"/>
</svg>
