<svg width="32" height="32" viewBox="0 0 32 32" fill="none" xmlns="http://www.w3.org/2000/svg">
    <path d="M0 1C0 0.447715 0.447715 0 1 0H31C31.5523 0 32 0.447715 32 1V31C32 31.5523 31.5523 32 31 32H1C0.447715 32 0 31.5523 0 31V1Z" fill="white"/>
    <path d="M24.2414 10.7287C23.8094 11.3714 23.2793 11.9192 22.6513 12.3722C22.6575 12.4937 22.6606 12.631 22.6606 12.7842C22.6606 13.6351 22.5365 14.487 22.2884 15.34C22.0403 16.193 21.6613 17.0094 21.1514 17.7893C20.6415 18.5692 20.0342 19.2602 19.3293 19.8621C18.6245 20.4641 17.7772 20.9441 16.7875 21.302C15.7979 21.66 14.7372 21.839 13.6056 21.839C11.8394 21.839 10.213 21.3622 8.72629 20.4086C8.99017 20.438 9.24325 20.4527 9.48553 20.4527C10.961 20.4527 12.2788 19.9982 13.439 19.0893C12.751 19.0767 12.1349 18.8649 11.5907 18.454C11.0464 18.0431 10.6719 17.518 10.467 16.8788C10.6695 16.9173 10.8693 16.9366 11.0665 16.9366C11.3504 16.9366 11.6296 16.8996 11.9044 16.8256C11.1702 16.6785 10.5612 16.3129 10.0773 15.7286C9.59333 15.1443 9.35137 14.4699 9.35137 13.7055V13.6661C9.802 13.9156 10.2827 14.0483 10.7934 14.0642C10.3585 13.7743 10.0136 13.3962 9.75892 12.93C9.50418 12.4637 9.37681 11.9592 9.37681 11.4163C9.37681 10.8438 9.52028 10.3106 9.80722 9.81686C10.6056 10.7966 11.573 11.5796 12.7094 12.166C13.8459 12.7523 15.0651 13.078 16.367 13.1429C16.3115 12.9115 16.2837 12.67 16.2836 12.4184C16.2836 11.54 16.5944 10.79 17.2162 10.1683C17.8379 9.54667 18.5879 9.23584 19.4663 9.23584C20.386 9.23584 21.1606 9.57071 21.7903 10.2405C22.5096 10.098 23.1832 9.84023 23.811 9.46726C23.5691 10.2284 23.1031 10.8156 22.4129 11.2288C23.0472 11.1534 23.6568 10.9867 24.2414 10.7287Z" fill="#9893A3"/>
</svg>
